<svg xmlns="http://www.w3.org/2000/svg" viewBox="0 0 54.55 39.04"><defs><style>.cls-1{fill:#de003e;}</style></defs><title>Ativo 1</title><g id="Camada_2" data-name="Camada 2"><g id="Camada_1-2" data-name="Camada 1"><path class="cls-1" d="M27.28,23.42,1.22,1.08A3.79,3.79,0,0,1,3.93,0c3.43,0,6.87,0,10.3,0H50.08a4.41,4.41,0,0,1,3.27,1.08Z"/><path class="cls-1" d="M1.21,38,20.52,21.41c2.27,2,4.5,3.92,6.76,5.91L34,21.41,53.35,38A4.05,4.05,0,0,1,50.51,39H4.42A4.32,4.32,0,0,1,1.21,38Z"/><path class="cls-1" d="M54.55,35.81l-18.81-16L54.55,3.45Z"/><path class="cls-1" d="M0,35.82V3.46L18.82,19.82Z"/></g></g></svg>