<svg xmlns="http://www.w3.org/2000/svg" viewBox="0 0 42 42"><defs><style>.cls-1{fill:#f0f0f0;}</style></defs><g id="Camada_2" data-name="Camada 2"><g id="Camada_1-2" data-name="Camada 1"><path class="cls-1" d="M0,21H21a.38.38,0,0,0,.15,0H42v1.51s0,0,0,0a.28.28,0,0,0,0,.09c0,.35-.07.7-.11,1.05-.09.71-.22,1.41-.38,2.11-.06.24-.11.48-.19.72H.75l0-.08A21.29,21.29,0,0,1,0,22a2.18,2.18,0,0,0,0-.44Z"/><path class="cls-1" d="M34.08,37.45c-.23.2-.48.38-.73.56a21.2,21.2,0,0,1-8.83,3.71c-.58.09-1.16.17-1.74.21l-.33,0s-.07,0-.06,0H22.2s-.05,0-.07,0H22s0,0,0,0H20.09s0,0-.05,0H19.9s0,0,0,0h-.19c0-.06-.05,0-.08,0l-.32,0A18.85,18.85,0,0,1,17,41.62a19.92,19.92,0,0,1-4-1.2,21.21,21.21,0,0,1-4.78-2.75A2.88,2.88,0,0,1,8,37.45H34.08Z"/><path class="cls-1" d="M22.13,0s0,0,0,0h.09A21,21,0,0,1,34,4.48a.39.39,0,0,1,.1.08.55.55,0,0,1-.18,0H21.18a.3.3,0,0,0-.16,0,.3.3,0,0,1,0-.13V.12A.25.25,0,0,1,21,0Z"/><path d="M42,20a.15.15,0,0,1,0-.17Z"/><path d="M22.13,42s.05,0,.07,0Z"/><path d="M19.85,42s0,0,0,0Z"/><path d="M20,42s0,0,.05,0Z"/><path d="M22,42s0,0,0,0Z"/><path class="cls-1" d="M38.93,10.05c.22.34.42.7.61,1.06a21,21,0,0,1,1.73,4.33s0,.06,0,.09H21.18a.38.38,0,0,0-.15,0,.17.17,0,0,1,0-.12V10.16A.17.17,0,0,1,21,10a.37.37,0,0,0,.15,0H38.93Z"/><path class="cls-1" d="M14.55,6.65s0-.08,0-.11c.2-.61.4-1.21.59-1.81l0-.05c0-.11,0-.1-.06-.16L13.55,3.39a.81.81,0,0,1-.1-.09.2.2,0,0,1,.13,0h1.95c.07,0,.1,0,.12-.09l.21-.63c.13-.42.27-.84.4-1.25a1,1,0,0,0,0-.1c.06,0,.05.08.07.12.19.6.39,1.2.58,1.8.06.18,0,.15.2.15h1.9a.3.3,0,0,1,.13,0s-.06.06-.09.08L17.52,4.52c-.1.06-.1.06-.06.18l.6,1.84s0,.07,0,.11-.08,0-.12-.06L16.41,5.46c-.1-.07-.08-.08-.19,0L14.65,6.6S14.59,6.66,14.55,6.65Z"/><path class="cls-1" d="M14.55,12.74a4.58,4.58,0,0,1,.17-.56l.45-1.38c0-.1,0-.1-.06-.16L13.56,9.51l-.12-.09a.25.25,0,0,1,.14,0H15.5c.12,0,.12,0,.16-.13l.6-1.84a.34.34,0,0,1,0-.11.22.22,0,0,1,.06.14L17,9.28c0,.12,0,.12.15.12H19s.09,0,.14,0a.81.81,0,0,1-.1.09l-1.57,1.14c-.09.06-.09.06-.05.16l.6,1.85a.25.25,0,0,1,0,.12s-.08,0-.12-.06L16.4,11.57c-.09-.06-.07-.07-.18,0l-1.54,1.12a.15.15,0,0,1-.1.06Z"/><path class="cls-1" d="M5.92,9.41a.33.33,0,0,1,.14,0H8c.07,0,.1,0,.12-.09s.13-.42.2-.62c.14-.42.27-.85.41-1.27a.36.36,0,0,1,0-.09c.05,0,.05.07.06.11.2.59.39,1.19.58,1.78.07.21,0,.17.24.17h1.86a.3.3,0,0,1,.13,0s-.05.06-.08.08L10,10.63c-.1.07-.1.07-.06.18.19.6.39,1.21.59,1.81,0,0,0,.09,0,.14s-.07,0-.1,0L8.91,11.6l0,0c-.11-.07-.08-.09-.2,0L7.11,12.72s-.05.06-.1,0,0-.09,0-.14c.19-.6.39-1.21.59-1.82,0-.14,0-.11-.06-.18L6,9.5A.27.27,0,0,1,5.92,9.41Z"/><path class="cls-1" d="M7,18.86a5,5,0,0,1,.16-.55c.15-.45.3-.9.44-1.36,0-.13,0-.13-.07-.22L6,15.63a.35.35,0,0,1-.11-.1.22.22,0,0,1,.14,0H8c.11,0,.11,0,.15-.12l.6-1.83a.76.76,0,0,1,0-.11c.06,0,.05.07.06.11l.6,1.84c0,.13,0,.11.15.11h1.93a.2.2,0,0,1,.13,0s-.06.06-.09.09L10,16.76c-.09.06-.09.06-.06.16l.6,1.83s0,.08,0,.13a.15.15,0,0,1-.11-.06L8.88,17.7c-.11-.08-.08-.09-.2,0L7.14,18.81a.15.15,0,0,1-.1.06Z"/><path class="cls-1" d="M14.55,18.86a3.79,3.79,0,0,1,.14-.48c.16-.48.31-1,.47-1.44,0-.14.06-.11-.07-.2l-1.55-1.13a.22.22,0,0,1-.09-.08.24.24,0,0,1,.14,0h1.93c.1,0,.1,0,.13-.09.13-.39.25-.77.38-1.15l.24-.73a.21.21,0,0,1,0-.1.2.2,0,0,1,.06.14L17,15.4c0,.11,0,.11.14.11H19a.23.23,0,0,1,.14,0c0,.05-.05.06-.08.08l-1.5,1.1-.08.05c-.07,0-.07.08-.05.15.21.62.41,1.24.61,1.86a.25.25,0,0,1,0,.12.33.33,0,0,1-.13-.07L16.41,17.7c-.11-.08-.08-.09-.2,0l-1.53,1.11a.15.15,0,0,1-.1.06Z"/><path class="cls-1" d="M3,18.88c-.05,0-.08-.05-.12-.08L1.33,17.68c-.09-.06-.08-.06-.16,0l-.85.62a.43.43,0,0,1-.14.08,21.26,21.26,0,0,1,1.15-4.67.19.19,0,0,1,.06.13L1.9,15.4c0,.11,0,.11.15.11H4a.21.21,0,0,1,.13,0,.23.23,0,0,1-.09.08L2.46,16.74c-.1.08-.1.08-.06.19.19.61.39,1.22.59,1.82,0,0,0,.07,0,.11Z"/><path class="cls-1" d="M7,6.66a.06.06,0,0,1,0-.07C7.19,6,7.37,5.5,7.55,5a.26.26,0,0,1,.08-.13A21.8,21.8,0,0,1,9.7,3.32a.2.2,0,0,1,.13,0h1.82a.38.38,0,0,1-.12.1L10,4.51c-.1.07-.1.07-.06.18l.6,1.85a.36.36,0,0,1,0,.11c-.06,0-.08,0-.12-.06L8.87,5.46c-.1-.08-.08-.08-.18,0L7.16,6.56A.45.45,0,0,1,7,6.66Z"/><path class="cls-1" d="M3,12.76a.13.13,0,0,1-.12,0l-.81-.59c-.08-.06-.08-.06,0-.15q.18-.39.39-.78l0-.08Z"/><path class="cls-1" d="M3,10.17a2.77,2.77,0,0,1,.22-.37c.07-.12.15-.23.22-.34s0-.07.09-.07H4.1s0,0,0,.05l-1,.7s0,0-.05,0Z"/><path class="cls-1" d="M3.05,10.18v0s0,0,0,0Z"/><path class="cls-1" d="M14.58,12.75s0,0,0,0,0,0,0,0Z"/><path class="cls-1" d="M3,18.86a0,0,0,0,1,0,0s0,0,0,0Z"/><path class="cls-1" d="M7,18.87s0,0,0,0,0,0,0,0Z"/><path class="cls-1" d="M14.58,18.87s0,0,0,0,0,0,0,0Z"/><path class="cls-1" d="M3.11,32H38.92a8.6,8.6,0,0,1-.58.9,20.74,20.74,0,0,1-4.17,4.5l-.09.08H8l-.44-.35A21.36,21.36,0,0,1,3.15,32,.25.25,0,0,0,3.11,32Z"/></g></g></svg>