<svg xmlns="http://www.w3.org/2000/svg" viewBox="0 0 144.16 144.09"><defs><style>.cls-1{fill:#fff;}.cls-2{fill:#fee7bd;}.cls-3{fill:#677078;}.cls-4{fill:#8a5c42;}</style></defs><g id="Camada_2" data-name="Camada 2"><g id="Camada_1-2" data-name="Camada 1"><path class="cls-1" d="M65.89,0H78c.07.21.24.24.43.27l7.72,1.07,5.59,1.31,5.68,1.83c3.83,1.64,7.6,3.38,11.25,5.39a9.89,9.89,0,0,0,2.26,1.39,23.29,23.29,0,0,0,3.36,2.27,83.49,83.49,0,0,1,15,14.59l1.89,2.57,2,3.07A114.3,114.3,0,0,1,139,45l2,5.62a33.51,33.51,0,0,0,1.39,4.94l.1.67c.34,1.88.68,3.77,1,5.65l.57,5.63.09,5.61c-.09,1.87-.19,3.75-.29,5.62l-.79,5.64a94.45,94.45,0,0,1-2.87,11.24q-1.11,2.82-2.23,5.64a13.91,13.91,0,0,0-1.23,2.69c-.52,1-1.05,2-1.58,2.93l-3.42,5.63a1.45,1.45,0,0,0-.58.83l-3.66,4.79a13.19,13.19,0,0,0-2,2.25l-2.91,2.84a23.51,23.51,0,0,0-7.58-10.6,54.58,54.58,0,0,0-8.51-5.68c-.51-.26-1-.37-.58-1.18a15.23,15.23,0,0,0,1.29-11c-1.49-6.52-4.67-12-10.37-15.77.31-.89.63-1.76.91-2.65a1.49,1.49,0,0,1,1.08-1,13.68,13.68,0,0,0,7.84-7.43c1.74-3.74.79-6.67-2.6-8.41a17.69,17.69,0,0,0,2.28-9.7,54.11,54.11,0,0,0-1.75-12.47,8.29,8.29,0,0,1,0-4c.67-2.77,2.51-4.5,5.2-5.66-5-4.22-10.83-5.24-17.18-5.53a32.24,32.24,0,0,1,9.48-4.57c-9.68-5.16-19.3-4.48-29.16-1.3.82-3.31,2.76-5.59,5.67-7.58-12.43.24-21.5,6.12-29.13,15.17A10.06,10.06,0,0,1,51,16.45c-.53-.09-.72.23-1,.42a26.11,26.11,0,0,0-8,11A43.7,43.7,0,0,0,38.8,42.46c-.32,5.72-.51,11.42,2.33,16.7-3.66,1.67-5,4.08-3.79,7.58a13.66,13.66,0,0,0,7.58,8.36c.49.23,1,.29,1.27,1,.55,1.63,1.17,3.24,1.77,4.86-6.86,5.32-10.19,12.16-9.11,20.94.17,1.41,1.28,3.06.51,4.11s-2.59,1.36-3.89,2.11c-6.15,3.53-12.07,7.32-14.64,14.48l-2.21-2.13-2-2.25L13,113.4a1.36,1.36,0,0,0-.57-.85L9,106.92,7.41,104,6.18,101.3,3.94,95.66A94.41,94.41,0,0,1,1.08,84.42L.29,78.78,0,73.16l.09-5.61.56-5.64,1-5.64C2.63,52.45,3.88,48.74,5.18,45A117.42,117.42,0,0,1,11,33.76l2-3.08,1.91-2.56C16,26.84,17,25.54,18.15,24.28A82.46,82.46,0,0,1,29.89,13.54l3.36-2.28a9.89,9.89,0,0,0,2.26-1.39c3.65-2,7.42-3.75,11.24-5.38l5.68-1.84L58,1.34c.59-.09,1.2-.14,1.78-.28C61.81.58,63.93.74,65.89,0Z"/><path class="cls-2" d="M104.11,59.53c3.39,1.74,4.34,4.67,2.6,8.41a13.68,13.68,0,0,1-7.84,7.43,1.49,1.49,0,0,0-1.08,1c-.28.89-.6,1.76-.91,2.65-1,2.26-1.76,4.73-3.28,6.66C91,89,90.8,92.72,90.78,96.72a21.54,21.54,0,0,1-7.54,16.47c-3.08,2.75-6.68,4.65-10.25,6.61a1.39,1.39,0,0,1-1.55-.16A44.93,44.93,0,0,1,64.61,115c-5.52-4.72-8.82-10.54-8.5-18a7.5,7.5,0,0,0-1.92-5.58c-2.66-3.11-4.38-6.84-6.23-10.47-.6-1.62-1.22-3.23-1.77-4.86-.22-.66-.78-.72-1.27-1a13.66,13.66,0,0,1-7.58-8.36c-1.16-3.5.13-5.91,3.79-7.58,1.33,2.21,1.69,4.72,2.26,7.17a9,9,0,0,0,1.27,3.75,35.14,35.14,0,0,1,.69-6.2c.49-2.15,1-4.33,2.64-5.94,2.65-2.52,2.82-3.66.91-6.77-2.83-4.6-1.93-8.9,2.52-12A16.21,16.21,0,0,1,54,37.75a45.69,45.69,0,0,1,29-3c4.66,1,9.1,2.58,12.81,5.73a8.41,8.41,0,0,1,2.54,10.23c-.4,1-1,1.93-1.35,2.93-.71,1.77-1,3.58.35,5.18a9.08,9.08,0,0,1,1.87,5,43.23,43.23,0,0,1,.13,6.45c1.28-.81,1.56-1.44,1.83-3.17C101.51,64.41,101.79,61.56,104.11,59.53Z"/><path class="cls-3" d="M48,80.91c1.85,3.63,3.57,7.36,6.23,10.47A7.5,7.5,0,0,1,56.11,97c-.32,7.45,3,13.27,8.5,18a44.93,44.93,0,0,0,6.83,4.69,1.39,1.39,0,0,0,1.55.16c3.57-2,7.17-3.86,10.25-6.61a21.54,21.54,0,0,0,7.54-16.47c0-4,.17-7.72,2.82-11.06,1.52-1.93,2.26-4.4,3.28-6.66,5.7,3.78,8.88,9.25,10.37,15.77a15.23,15.23,0,0,1-1.29,11c-.45.81.07.92.58,1.18a54.58,54.58,0,0,1,8.51,5.68,23.51,23.51,0,0,1,7.58,10.6l-.15.31L119.91,126l-4.15,3.41a4.09,4.09,0,0,0-1.47,1.1A108.65,108.65,0,0,1,103,137.2a118.54,118.54,0,0,1-11.23,4.22l-5.6,1.31c-1.17.39-1.47,0-1.45-1.22.06-6,0-12.1,0-18.14,0-.62.06-1.26-.51-1.67a1.42,1.42,0,0,0-1.46-.23,1.38,1.38,0,0,0-.86,1.45v7.59c0,3.71-.06,7.41,0,11.11,0,1.38-.25,2.15-1.78,2-.17,0-.35.11-.52.18l-4.74.33H69.26l-5.61-.48c-1.45,0-1.82-.65-1.8-2.06.08-5.84,0-11.69,0-17.53v-1c0-1-.44-1.68-1.47-1.68S59,122,59,123c0,2.1,0,4.2,0,6.31q0,6.1,0,12.2c0,.69.06,1.37-.92,1.36a29.85,29.85,0,0,0-5.33-1.39,114.74,114.74,0,0,1-11.52-4.32,99.4,99.4,0,0,1-11.3-6.67L28,129.06l-3.71-3a18,18,0,0,0-2.57-2.44l-.85-1c2.57-7.16,8.49-11,14.64-14.48,1.3-.75,3.11-1,3.89-2.11s-.34-2.7-.51-4.11C37.77,93.07,41.1,86.23,48,80.91Z"/><path class="cls-4" d="M104.11,59.53c-2.32,2-2.6,4.88-3,7.65-.27,1.73-.55,2.36-1.83,3.17a43.23,43.23,0,0,0-.13-6.45,9.08,9.08,0,0,0-1.87-5c-1.35-1.6-1.06-3.41-.35-5.18.39-1,1-1.93,1.35-2.93a8.41,8.41,0,0,0-2.54-10.23c-3.71-3.15-8.15-4.7-12.81-5.73a45.69,45.69,0,0,0-28.95,3,16.21,16.21,0,0,0-2.55,1.47c-4.45,3.05-5.35,7.35-2.52,12,1.91,3.11,1.74,4.25-.91,6.77-1.68,1.61-2.15,3.79-2.64,5.94a35.14,35.14,0,0,0-.69,6.2,9,9,0,0,1-1.27-3.75c-.57-2.45-.93-5-2.26-7.17-2.84-5.28-2.65-11-2.33-16.7A43.7,43.7,0,0,1,42,27.88a26.11,26.11,0,0,1,8-11c.24-.19.43-.51,1-.42a10.06,10.06,0,0,0-1.48,7.42c7.63-9,16.7-14.93,29.13-15.17-2.91,2-4.85,4.27-5.67,7.58,9.86-3.18,19.48-3.86,29.16,1.3a32.24,32.24,0,0,0-9.48,4.57c6.35.29,12.21,1.31,17.18,5.53-2.69,1.16-4.53,2.89-5.2,5.66a8.29,8.29,0,0,0,0,4,54.11,54.11,0,0,1,1.75,12.47A17.69,17.69,0,0,1,104.11,59.53Z"/></g></g></svg>