<svg xmlns="http://www.w3.org/2000/svg" viewBox="0 0 44.28 44.29"><defs><style>.cls-1{fill:#fff;}</style></defs><g id="Camada_2" data-name="Camada 2"><g id="Camada_1-2" data-name="Camada 1"><path class="cls-1" d="M23.1,44.29C9.85,44.27.08,34.36,0,22.34A22.14,22.14,0,1,1,38.09,37.53,21.62,21.62,0,0,1,23.1,44.29ZM3.87,22.13a.48.48,0,0,0,.18.17l4.3,3.16q6.81,5,13.63,10c.17.13.17.13.33,0L27.12,32l6.2-4.56,7-5.12c.18-.14.17-.14,0-.27l-2.89-2.13-9.69-7.14-5.36-4c-.18-.13-.19-.13-.37,0l-6.8,5L4.63,21.57Z"/><path class="cls-1" d="M28.45,26.53c0,.08-.05.13-.09.18a7.72,7.72,0,0,1-11.65.91,7.45,7.45,0,0,1-2.18-4.28,5,5,0,0,1-.08-1.09,12.58,12.58,0,0,1,3.34-.58,13.07,13.07,0,0,1,3,.23,12.93,12.93,0,0,1,6.82,3.7C27.9,25.9,28.16,26.22,28.45,26.53Z"/><path class="cls-1" d="M15.07,19.09a6.89,6.89,0,0,1,1.15-1.89,7.44,7.44,0,0,1,4.71-2.67,7.53,7.53,0,0,1,6.46,2,7.45,7.45,0,0,1,2.33,4.18,7.28,7.28,0,0,1,0,2.94l-.09-.08A15,15,0,0,0,28,22.08a15.67,15.67,0,0,0-9-3.29A15.26,15.26,0,0,0,16,19C15.65,19,15.37,19.07,15.07,19.09Z"/></g></g></svg>