<svg xmlns="http://www.w3.org/2000/svg" viewBox="0 0 26.36 17.84"><defs><style>.cls-1{fill:#fff;}</style></defs><g id="Camada_2" data-name="Camada 2"><g id="Camada_1-2" data-name="Camada 1"><path class="cls-1" d="M26.35,0V1.76c0,.71,0,1.43,0,2.15,0,.15-.07.24-.28.32L13.69,8.94a.73.73,0,0,1-.58,0L.73,4.23C.6,4.18.46,4.05.46,4c0-1.28,0-2.56,0-3.84,0,0,0,0,0-.11L1,.19,13,4.77a1,1,0,0,0,.78,0L25.87.17Z"/><path class="cls-1" d="M25.9,8.84V10.6c0,.71,0,1.43,0,2.14,0,.16-.07.25-.28.33-4.13,1.57-8.26,3.13-12.39,4.71a.73.73,0,0,1-.58,0L.28,13.06C.15,13,0,12.89,0,12.8,0,11.52,0,10.24,0,9c0,0,0-.05,0-.11L.52,9c4,1.53,8,3.05,12,4.59a1,1,0,0,0,.78,0L25.42,9Z"/></g></g></svg>